# Blender v2.69 (sub 0) OBJ File: 'hatchet.blend'
# www.blender.org
g Cylinder
v 0.000000 0.663442 0.158791
v 0.000000 0.967746 0.417743
v 0.044379 0.650048 0.173792
v 0.044379 0.954351 0.432743
v 0.076867 0.619190 0.207126
v 0.076867 0.917758 0.473724
v 0.088758 0.569203 0.263108
v 0.088758 0.867771 0.529706
v 0.076867 0.519216 0.319089
v 0.076867 0.817784 0.585687
v 0.044379 0.482623 0.360071
v 0.044379 0.781191 0.626669
v 0.000000 0.469229 0.375071
v 0.000000 0.767797 0.641669
v -0.044379 0.482623 0.360071
v -0.044379 0.781191 0.626669
v -0.076867 0.519216 0.319089
v -0.076867 0.817784 0.585687
v -0.088758 0.569203 0.263108
v -0.088758 0.867771 0.529706
v -0.076867 0.619190 0.207126
v -0.076867 0.917758 0.473724
v -0.044379 0.650048 0.173792
v -0.044379 0.954351 0.432743
v 0.000000 0.591336 0.104135
v 0.044379 0.578442 0.116311
v 0.076867 0.543214 0.149575
v 0.088758 0.495092 0.195014
v 0.076867 0.446970 0.240454
v 0.044379 0.411742 0.273718
v 0.000000 0.398848 0.285893
v -0.044379 0.411742 0.273718
v -0.076867 0.446970 0.240454
v -0.088758 0.495092 0.195014
v -0.076867 0.543214 0.149575
v -0.044379 0.578442 0.116311
v -0.000000 0.064567 -0.326581
v 0.037007 0.053815 -0.316428
v 0.064097 0.024439 -0.288690
v 0.074013 -0.015689 -0.250799
v 0.064097 -0.055817 -0.212908
v 0.037007 -0.085192 -0.185170
v -0.000000 -0.095945 -0.175017
v -0.037007 -0.085192 -0.185170
v -0.064097 -0.055817 -0.212908
v -0.074013 -0.015689 -0.250799
v -0.064097 0.024439 -0.288690
v -0.037007 0.053815 -0.316428
v -0.000000 -0.608980 -0.828093
v 0.032963 -0.616112 -0.817018
v 0.057094 -0.635597 -0.786761
v 0.065927 -0.662213 -0.745429
v 0.057094 -0.688829 -0.704097
v 0.032963 -0.708314 -0.673840
v -0.000000 -0.715446 -0.662765
v -0.032964 -0.708314 -0.673840
v -0.057095 -0.688829 -0.704097
v -0.065927 -0.662213 -0.745429
v -0.057095 -0.635596 -0.786761
v -0.032964 -0.616112 -0.817018
v -0.000000 -0.753375 -0.922755
v 0.039451 -0.760542 -0.908713
v 0.068331 -0.780123 -0.870351
v 0.078902 -0.806871 -0.817946
v 0.068331 -0.833618 -0.765541
v 0.039451 -0.853199 -0.727178
v -0.000000 -0.860366 -0.713136
v -0.039451 -0.853199 -0.727178
v -0.068332 -0.833618 -0.765541
v -0.078903 -0.806871 -0.817946
v -0.068332 -0.780123 -0.870350
v -0.039451 -0.760542 -0.908713
v -0.000000 -0.822487 -0.971108
v 0.053037 -0.832122 -0.952230
v 0.091863 -0.858446 -0.900656
v 0.106074 -0.894405 -0.830205
v 0.091863 -0.930364 -0.759753
v 0.053037 -0.956687 -0.708179
v -0.000000 -0.966322 -0.689302
v -0.053037 -0.956687 -0.708179
v -0.091863 -0.930364 -0.759753
v -0.106075 -0.894405 -0.830205
v -0.091863 -0.858446 -0.900656
v -0.053038 -0.832122 -0.952230
v -0.000000 -0.859429 -0.985420
v 0.049117 -0.868352 -0.967938
v 0.085074 -0.892730 -0.920175
v 0.098235 -0.926032 -0.854930
v 0.085074 -0.959333 -0.789685
v 0.049117 -0.983711 -0.741922
v -0.000000 -0.992635 -0.724440
v -0.049118 -0.983711 -0.741922
v -0.085075 -0.959333 -0.789685
v -0.098236 -0.926032 -0.854930
v -0.085075 -0.892730 -0.920175
v -0.049118 -0.868352 -0.967938
v -0.000000 -0.978037 -0.881474
v 0.104120 0.774242 0.253731
v 0.102364 0.598900 0.421596
v -0.102364 0.598900 0.421596
v -0.106323 0.774243 0.253731
v 0.105222 0.926269 0.426332
v 0.102364 0.762429 0.596499
v -0.102364 0.762429 0.596499
v -0.105222 0.926269 0.426332
v 0.086593 0.851144 0.178911
v -0.086593 0.851144 0.178911
v 0.086593 0.995718 0.327729
v -0.086593 0.995718 0.327729
v 0.099878 0.672702 0.214977
v 0.099878 0.556285 0.328074
v -0.099878 0.556285 0.328074
v -0.099878 0.672702 0.214977
v 0.075346 0.546608 0.486645
v -0.075346 0.546608 0.486645
v 0.075346 0.708057 0.647076
v -0.075346 0.708057 0.647076
v 0.057452 0.415542 0.528987
v -0.057452 0.415542 0.528987
v 0.057452 0.615095 0.741241
v -0.057452 0.615095 0.741241
v 0.028900 0.152596 0.569970
v -0.028901 0.152308 0.570021
v 0.028900 0.477461 0.904954
v -0.028901 0.477461 0.904954
v -0.000000 0.081741 0.611171
v -0.000000 0.419897 0.982740
v -0.000000 0.083597 0.561770
vt 0.857803 0.691623
vt 0.858332 0.829560
vt 0.842401 0.690814
vt 0.216145 0.169478
vt 0.226310 0.031228
vt 0.232942 0.171219
vt 0.246403 0.033013
vt 0.259155 0.173748
vt 0.272616 0.035541
vt 0.284463 0.176344
vt 0.726521 0.170434
vt 0.728287 0.031880
vt 0.744476 0.169782
vt 0.746241 0.031228
vt 0.761378 0.169980
vt 0.763144 0.031426
vt 0.772700 0.170976
vt 0.125038 0.683804
vt 0.135084 0.822324
vt 0.104507 0.685321
vt 0.114554 0.823842
vt 0.078210 0.687228
vt 0.088257 0.825749
vt 0.053194 0.689015
vt 0.450471 0.671908
vt 0.464588 0.662606
vt 0.480888 0.667088
vt 0.873198 0.690696
vt 0.873727 0.828633
vt 0.063240 0.827535
vt 0.046207 0.828722
vt 0.873076 0.658919
vt 0.857683 0.660259
vt 0.869616 0.423822
vt 0.039436 0.690249
vt 0.053433 0.655949
vt 0.075195 0.652438
vt 0.098238 0.648806
vt 0.769826 0.209527
vt 0.741602 0.208333
vt 0.724591 0.207426
vt 0.255279 0.208446
vt 0.232381 0.204284
vt 0.842279 0.659037
vt 0.856780 0.424940
vt 0.867101 0.133857
vt 0.038781 0.658398
vt 0.043445 0.420493
vt 0.061592 0.417566
vt 0.080807 0.414537
vt 0.116386 0.646026
vt 0.095941 0.412219
vt 0.758159 0.209102
vt 0.753200 0.443402
vt 0.739393 0.442761
vt 0.277273 0.212675
vt 0.252890 0.446353
vt 0.234550 0.442826
vt 0.214714 0.201304
vt 0.215455 0.439355
vt 0.843935 0.423921
vt 0.855663 0.133754
vt 0.855433 0.073863
vt 0.031228 0.422536
vt 0.046416 0.133601
vt 0.062734 0.135107
vt 0.080001 0.136523
vt 0.093593 0.137470
vt 0.762929 0.443756
vt 0.756499 0.714839
vt 0.725208 0.442004
vt 0.744203 0.715366
vt 0.244699 0.724251
vt 0.228109 0.725218
vt 0.200723 0.436870
vt 0.210848 0.726235
vt 0.844226 0.133945
vt 0.869124 0.074532
vt 0.873727 0.045497
vt 0.035422 0.132408
vt 0.053301 0.076249
vt 0.072560 0.080077
vt 0.092958 0.083797
vt 0.109028 0.086413
vt 0.765167 0.716252
vt 0.764054 0.762702
vt 0.731572 0.717690
vt 0.749375 0.763861
vt 0.257487 0.777368
vt 0.237854 0.780558
vt 0.197540 0.727029
vt 0.217417 0.783808
vt 0.855321 0.044597
vt 0.855270 0.031228
vt 0.040340 0.073339
vt 0.060166 0.048438
vt 0.086059 0.053584
vt 0.113480 0.058586
vt 0.135084 0.062103
vt 0.963470 0.910418
vt 0.968772 0.924107
vt 0.932993 0.910418
vt 0.968772 0.896730
vt 0.271055 0.775092
vt 0.297925 0.800175
vt 0.279684 0.803235
vt 0.253289 0.807524
vt 0.201652 0.786246
vt 0.225815 0.811893
vt 0.841747 0.074637
vt 0.836922 0.045638
vt 0.042742 0.044526
vt 0.046256 0.031228
vt 0.062393 0.034851
vt 0.086371 0.039617
vt 0.111767 0.044249
vt 0.360381 0.676326
vt 0.364457 0.662606
vt 0.379066 0.666196
vt 0.360381 0.696121
vt 0.375291 0.697234
vt 0.364456 0.716687
vt 0.379066 0.716280
vt 0.252544 0.821467
vt 0.227100 0.825513
vt 0.204621 0.815170
vt 0.207472 0.828548
vt 0.608098 0.622078
vt 0.590141 0.625403
vt 0.600115 0.571922
vt 0.623649 0.606743
vt 0.632627 0.583508
vt 0.632627 0.558598
vt 0.623649 0.538689
vt 0.608098 0.529115
vt 0.590141 0.532440
vt 0.574590 0.547775
vt 0.565612 0.571010
vt 0.565612 0.595920
vt 0.574590 0.615829
vt 0.481781 0.115474
vt 0.398390 0.113496
vt 0.471142 0.081558
vt 0.621382 0.891004
vt 0.621382 0.964023
vt 0.539505 0.891996
vt 0.400355 0.382589
vt 0.401685 0.302821
vt 0.482906 0.297707
vt 0.539505 0.963032
vt 0.513869 0.901371
vt 0.480677 0.198544
vt 0.662990 0.957560
vt 0.565612 0.687859
vt 0.636230 0.687859
vt 0.565612 0.747951
vt 0.399731 0.193288
vt 0.362697 0.112414
vt 0.362713 0.383892
vt 0.774466 0.830543
vt 0.774466 0.903562
vt 0.737296 0.836624
vt 0.297925 0.891004
vt 0.297925 0.947231
vt 0.228614 0.891004
vt 0.836922 0.957176
vt 0.836922 0.892016
vt 0.870537 0.961125
vt 0.135084 0.891178
vt 0.135084 0.964197
vt 0.098451 0.962725
vt 0.484017 0.380747
vt 0.473082 0.414674
vt 0.513869 0.953657
vt 0.468034 0.907579
vt 0.507585 0.198891
vt 0.507534 0.297786
vt 0.503156 0.529115
vt 0.503156 0.600150
vt 0.474260 0.538489
vt 0.468034 0.947448
vt 0.393840 0.917486
vt 0.511500 0.120015
vt 0.555459 0.100266
vt 0.511475 0.376637
vt 0.554096 0.396694
vt 0.474260 0.590776
vt 0.432669 0.544698
vt 0.553840 0.201332
vt 0.633195 0.049296
vt 0.552467 0.295663
vt 0.629664 0.448101
vt 0.432669 0.584567
vt 0.360381 0.554605
vt 0.628039 0.211179
vt 0.662135 0.043447
vt 0.624559 0.286325
vt 0.656251 0.454458
vt 0.379066 0.802637
vt 0.360898 0.794141
vt 0.379066 0.779143
vt 0.644305 0.466659
vt 0.650267 0.031228
vt 0.393840 0.937542
vt 0.360381 0.927514
vt 0.842930 0.828752
vt 0.297925 0.038137
vt 0.774466 0.032422
vt 0.495005 0.684152
vt 0.442320 0.692500
vt 0.442320 0.718865
vt 0.503156 0.709225
vt 0.450471 0.743938
vt 0.503156 0.735590
vt 0.464588 0.761002
vt 0.480888 0.765483
vt 0.495005 0.756182
vt 0.774466 0.764922
vt 0.734363 0.768087
vt 0.872316 0.032061
vt 0.940120 0.928821
vt 0.940120 0.892016
vt 0.131774 0.047506
vt 0.375291 0.678902
vt 0.276988 0.817495
vt 0.838230 0.032192
vt 0.415538 0.079834
vt 0.662990 0.897468
vt 0.636230 0.747951
vt 0.360381 0.184367
vt 0.360381 0.311963
vt 0.737296 0.896716
vt 0.228614 0.947231
vt 0.870537 0.897547
vt 0.098451 0.893414
vt 0.417110 0.416330
vt 0.360461 0.574660
vt 0.662135 0.217757
vt 0.656251 0.280213
vn 0.000000 0.633900 -0.773400
vn 0.000000 0.984130 -0.177343
vn 0.634877 0.490219 -0.597125
vn 0.508744 0.860897 -0.002258
vn 0.923063 0.243324 -0.297830
vn 0.700766 0.665761 0.256233
vn 0.999969 -0.000458 0.000519
vn 0.739158 0.502365 0.448592
vn 0.938261 -0.241646 0.247414
vn 0.700766 0.329661 0.632618
vn 0.656819 -0.541063 0.525163
vn 0.510117 0.102481 0.853969
vn 0.000000 -0.722312 0.691549
vn 0.000000 -0.053804 0.998535
vn -0.656819 -0.541063 0.525163
vn -0.510117 0.102481 0.853969
vn -0.938261 -0.241646 0.247414
vn -0.700766 0.329661 0.632618
vn -0.999969 -0.000458 0.000519
vn -0.739158 0.502365 0.448592
vn -0.923063 0.243324 -0.297830
vn -0.508744 0.860897 -0.002258
vn -0.634877 0.490219 -0.597125
vn -0.700766 0.665761 0.256233
vn -0.629902 0.484146 -0.607288
vn 0.000000 0.618122 -0.786065
vn -0.622578 0.479446 -0.618458
vn -0.926206 0.230873 -0.298013
vn -0.999847 -0.009919 -0.012482
vn -0.930998 -0.266640 0.249153
vn -0.637989 -0.564776 0.523392
vn 0.637989 -0.564776 0.523392
vn 0.930998 -0.266640 0.249153
vn 0.999847 -0.009919 -0.012482
vn 0.926206 0.230873 -0.298013
vn 0.629902 0.484146 -0.607288
vn 0.000000 0.615802 -0.787866
vn -0.622333 0.452925 -0.638356
vn -0.923826 0.228492 -0.307047
vn -0.999847 -0.009003 -0.014740
vn -0.928281 -0.248543 0.276528
vn -0.630665 -0.506729 0.587725
vn 0.000000 -0.735588 0.677419
vn 0.000000 -0.649861 0.760033
vn 0.630665 -0.506729 0.587725
vn 0.928281 -0.248543 0.276528
vn 0.999847 -0.009003 -0.014740
vn 0.923826 0.228492 -0.307047
vn 0.622578 0.479446 -0.618458
vn 0.000000 0.572771 -0.819697
vn 0.000000 0.561327 -0.827570
vn -0.922910 0.235298 -0.304697
vn -0.999268 0.036134 0.009919
vn -0.931425 -0.157323 0.328074
vn -0.639912 -0.362377 0.677602
vn 0.000000 -0.477523 0.878597
vn 0.639912 -0.362377 0.677602
vn 0.931425 -0.157323 0.328074
vn 0.999268 0.036134 0.009919
vn 0.922910 0.235298 -0.304697
vn 0.622333 0.452925 -0.638356
vn -0.615619 0.467177 -0.634602
vn -0.636830 0.371441 -0.675588
vn -0.911283 0.306772 -0.274575
vn -0.981201 0.179174 0.071505
vn -0.902646 0.079653 0.422895
vn -0.604785 0.001984 0.796350
vn 0.000000 -0.028504 0.999573
vn 0.604785 0.001984 0.796350
vn 0.902646 0.079653 0.422895
vn 0.981201 0.179174 0.071505
vn 0.911283 0.306772 -0.274575
vn 0.000000 0.470229 -0.882534
vn 0.000000 -0.109989 -0.993927
vn -0.933226 0.197333 -0.300150
vn -0.997772 0.041688 0.051637
vn -0.909238 -0.109867 0.401440
vn -0.595355 -0.271371 0.756218
vn 0.000000 -0.358043 0.933683
vn 0.595355 -0.271371 0.756218
vn 0.909238 -0.109867 0.401440
vn 0.997772 0.041688 0.051637
vn 0.615619 0.467177 -0.634602
vn 0.933226 0.197333 -0.300150
vn 0.636830 0.371441 -0.675588
vn -0.514756 -0.190100 -0.835963
vn -0.771538 -0.334727 -0.540941
vn -0.831813 -0.488571 -0.263314
vn -0.745842 -0.665914 -0.014130
vn -0.482192 -0.850276 0.210883
vn 0.482192 -0.850276 0.210883
vn 0.745842 -0.665914 -0.014130
vn 0.831813 -0.488571 -0.263314
vn 0.771538 -0.334727 -0.540941
vn 0.514756 -0.190100 -0.835963
vn 0.000000 -0.890683 -0.454604
vn 0.000000 -0.945067 0.326823
vn -0.832881 -0.552293 0.035188
vn -0.850246 -0.052797 -0.523698
vn -0.583300 -0.797632 -0.153325
vn 0.705649 0.572466 0.417493
vn -0.703085 0.575304 0.417890
vn 0.725516 0.380047 0.573717
vn 0.848354 -0.057863 -0.526231
vn -0.724509 0.379498 0.575304
vn 0.667013 0.387005 0.636616
vn -0.533647 0.840907 -0.089755
vn 0.533647 0.840907 -0.089755
vn 0.525346 0.033967 -0.850185
vn -0.521226 0.036927 -0.852596
vn 0.588275 -0.170446 -0.790460
vn 0.586261 -0.795373 -0.153661
vn -0.580157 -0.175268 -0.795404
vn 0.834925 -0.549394 0.032350
vn -0.667013 0.387005 0.636616
vn 0.712790 0.447493 0.540025
vn -0.750969 -0.516800 -0.411023
vn -0.712790 0.447493 0.540025
vn 0.723808 0.422987 0.545122
vn -0.741386 -0.241432 -0.626087
vn 0.750969 -0.516800 -0.411023
vn 0.741417 -0.241493 -0.626026
vn -0.790490 -0.218299 -0.572222
vn 0.789819 -0.218390 -0.573107
vn -0.723777 0.422987 0.545152
vn 0.000427 -0.923948 0.382488
vn 0.000488 -0.788110 -0.615497
vn 0.000000 -0.144353 0.989502
s 1
f 1/1/1 2/2/2 3/3/3
f 3/4/3 4/5/4 5/6/5
f 5/6/5 6/7/6 7/8/7
f 7/8/7 8/9/8 9/10/9
f 9/11/9 10/12/10 11/13/11
f 11/13/11 12/14/12 13/15/13
f 13/15/13 14/16/14 15/17/15
f 15/18/15 16/19/16 17/20/17
f 17/20/17 18/21/18 19/22/19
f 19/22/19 20/23/20 21/24/21
f 4/25/4 2/26/2 24/27/22
f 23/28/23 24/29/22 2/2/2
f 21/24/21 22/30/24 24/31/22
f 23/28/23 1/1/1 36/32/25
f 36/32/25 25/33/26 48/34/27
f 21/24/21 23/35/23 35/36/28
f 19/22/19 21/24/21 34/37/29
f 17/20/17 19/22/19 34/37/29
f 15/18/15 17/20/17 33/38/30
f 13/15/13 15/17/15 32/39/31
f 11/13/11 13/15/13 30/40/32
f 9/11/9 11/13/11 29/41/33
f 7/8/7 9/10/9 28/42/34
f 5/6/5 7/8/7 28/42/34
f 3/4/3 5/6/5 27/43/35
f 1/1/1 3/3/3 26/44/36
f 48/34/27 37/45/37 60/46/38
f 35/36/28 36/47/25 47/48/39
f 34/37/29 35/36/28 46/49/40
f 33/38/30 34/37/29 45/50/41
f 32/51/31 33/38/30 44/52/42
f 31/53/43 32/39/31 43/54/44
f 30/40/32 31/53/43 43/54/44
f 29/41/33 30/40/32 42/55/45
f 28/42/34 29/56/33 41/57/46
f 27/43/35 28/42/34 40/58/47
f 26/59/36 27/43/35 39/60/48
f 25/33/26 26/44/36 38/61/49
f 60/46/38 49/62/50 61/63/51
f 47/48/39 48/64/27 59/65/52
f 46/49/40 47/48/39 58/66/53
f 45/50/41 46/49/40 57/67/54
f 44/52/42 45/50/41 56/68/55
f 43/54/44 44/69/42 55/70/56
f 42/55/45 43/54/44 55/70/56
f 41/71/46 42/55/45 54/72/57
f 40/58/47 41/57/46 53/73/58
f 39/60/48 40/58/47 52/74/59
f 38/75/49 39/60/48 51/76/60
f 37/45/37 38/61/49 50/77/61
f 72/78/62 61/63/51 84/79/63
f 59/65/52 60/80/38 71/81/64
f 58/66/53 59/65/52 70/82/65
f 57/67/54 58/66/53 69/83/66
f 56/68/55 57/67/54 68/84/67
f 55/70/56 56/85/55 67/86/68
f 54/72/57 55/70/56 67/86/68
f 53/87/58 54/72/57 66/88/69
f 52/74/59 53/73/58 65/89/70
f 51/76/60 52/74/59 64/90/71
f 50/91/61 51/76/60 63/92/72
f 49/62/50 50/77/61 61/63/51
f 84/79/63 73/93/73 85/94/74
f 71/81/64 72/95/62 83/96/75
f 70/82/65 71/81/64 82/97/76
f 69/83/66 70/82/65 81/98/77
f 68/84/67 69/83/66 80/99/78
f 67/100/68 68/101/67 79/102/79
f 66/103/69 67/100/68 79/102/79
f 65/89/70 66/104/69 78/105/80
f 64/90/71 65/89/70 77/106/81
f 63/92/72 64/90/71 76/107/82
f 62/108/83 63/92/72 75/109/84
f 61/63/51 62/110/83 74/111/85
f 83/96/75 84/112/63 96/113/86
f 82/97/76 83/96/75 95/114/87
f 81/98/77 82/97/76 94/115/88
f 80/99/78 81/98/77 93/116/89
f 79/117/79 80/118/78 92/119/90
f 78/120/80 79/117/79 90/121/91
f 77/122/81 78/120/80 89/123/92
f 76/107/82 77/106/81 88/124/93
f 75/109/84 76/107/82 87/125/94
f 74/126/85 75/109/84 86/127/95
f 73/93/73 74/111/85 85/94/74
f 96/128/86 85/129/74 97/130/96
f 95/131/87 96/128/86 97/130/96
f 94/132/88 95/131/87 97/130/96
f 93/133/89 94/132/88 97/130/96
f 92/134/90 93/133/89 97/130/96
f 91/135/97 92/134/90 97/130/96
f 90/136/91 91/135/97 97/130/96
f 89/137/92 90/136/91 97/130/96
f 88/138/93 89/137/92 97/130/96
f 87/139/94 88/138/93 97/130/96
f 86/140/95 87/139/94 97/130/96
f 85/129/74 86/140/95 97/130/96
f 100/141/98 101/142/99 112/143/100
f 102/144/101 105/145/102 103/146/103
f 98/147/104 102/148/101 103/149/103
f 103/146/103 104/150/105 116/151/106
f 100/141/98 104/152/105 101/142/99
f 105/145/102 102/144/101 109/153/107
f 108/154/108 106/155/109 109/156/107
f 101/142/99 105/157/102 107/158/110
f 102/148/101 98/147/104 106/159/109
f 98/160/104 101/161/99 106/162/109
f 110/163/111 111/164/112 113/165/113
f 99/166/114 100/167/98 111/168/112
f 101/169/99 98/170/104 110/171/111
f 98/147/104 99/172/114 111/173/112
f 116/151/106 117/174/115 120/175/116
f 104/152/105 100/141/98 117/176/115
f 99/172/114 103/149/103 116/177/106
f 100/178/98 99/179/114 115/180/117
f 120/175/116 121/181/118 124/182/119
f 117/176/115 115/183/117 119/184/120
f 114/185/121 116/177/106 118/186/122
f 115/180/117 114/187/121 119/188/120
f 121/189/118 119/184/120 123/190/123
f 118/186/122 120/191/116 122/192/124
f 119/188/120 118/193/122 123/194/123
f 125/195/125 123/190/123 126/196/126
f 122/192/124 124/197/119 126/198/126
f 123/199/123 122/200/124 128/201/127
f 122/192/124 126/198/126 128/202/127
f 126/196/126 123/190/123 128/203/127
f 124/182/119 125/204/125 127/205/128
f 2/2/2 4/206/4 3/3/3
f 4/5/4 6/7/6 5/6/5
f 6/7/6 8/9/8 7/8/7
f 8/9/8 10/207/10 9/10/9
f 10/12/10 12/14/12 11/13/11
f 12/14/12 14/16/14 13/15/13
f 14/16/14 16/208/16 15/17/15
f 16/19/16 18/21/18 17/20/17
f 18/21/18 20/23/20 19/22/19
f 20/23/20 22/30/24 21/24/21
f 4/25/4 24/27/22 22/209/24
f 6/210/6 4/25/4 22/209/24
f 8/211/8 6/210/6 22/209/24
f 8/211/8 22/209/24 20/212/20
f 10/213/10 8/211/8 20/212/20
f 10/213/10 20/212/20 18/214/18
f 12/215/12 10/213/10 18/214/18
f 14/216/14 12/215/12 18/214/18
f 16/217/16 14/216/14 18/214/18
f 1/1/1 23/28/23 2/2/2
f 23/35/23 21/24/21 24/31/22
f 1/1/1 25/33/26 36/32/25
f 25/33/26 37/45/37 48/34/27
f 23/35/23 36/47/25 35/36/28
f 21/24/21 35/36/28 34/37/29
f 33/38/30 17/20/17 34/37/29
f 32/51/31 15/18/15 33/38/30
f 31/53/43 13/15/13 32/39/31
f 13/15/13 31/53/43 30/40/32
f 11/13/11 30/40/32 29/41/33
f 9/10/9 29/56/33 28/42/34
f 27/43/35 5/6/5 28/42/34
f 26/59/36 3/4/3 27/43/35
f 25/33/26 1/1/1 26/44/36
f 37/45/37 49/62/50 60/46/38
f 36/47/25 48/64/27 47/48/39
f 35/36/28 47/48/39 46/49/40
f 34/37/29 46/49/40 45/50/41
f 33/38/30 45/50/41 44/52/42
f 32/39/31 44/69/42 43/54/44
f 42/55/45 30/40/32 43/54/44
f 41/71/46 29/41/33 42/55/45
f 40/58/47 28/42/34 41/57/46
f 39/60/48 27/43/35 40/58/47
f 38/75/49 26/59/36 39/60/48
f 37/45/37 25/33/26 38/61/49
f 72/78/62 60/46/38 61/63/51
f 48/64/27 60/80/38 59/65/52
f 47/48/39 59/65/52 58/66/53
f 46/49/40 58/66/53 57/67/54
f 45/50/41 57/67/54 56/68/55
f 44/69/42 56/85/55 55/70/56
f 54/72/57 42/55/45 55/70/56
f 53/87/58 41/71/46 54/72/57
f 52/74/59 40/58/47 53/73/58
f 51/76/60 39/60/48 52/74/59
f 50/91/61 38/75/49 51/76/60
f 49/62/50 37/45/37 50/77/61
f 61/63/51 73/93/73 84/79/63
f 60/80/38 72/95/62 71/81/64
f 59/65/52 71/81/64 70/82/65
f 58/66/53 70/82/65 69/83/66
f 57/67/54 69/83/66 68/84/67
f 56/85/55 68/218/67 67/86/68
f 66/88/69 54/72/57 67/86/68
f 65/219/70 53/87/58 66/88/69
f 64/90/71 52/74/59 65/89/70
f 63/92/72 51/76/60 64/90/71
f 62/108/83 50/91/61 63/92/72
f 50/77/61 62/110/83 61/63/51
f 96/220/86 84/79/63 85/94/74
f 72/95/62 84/112/63 83/96/75
f 71/81/64 83/96/75 82/97/76
f 70/82/65 82/97/76 81/98/77
f 69/83/66 81/98/77 80/99/78
f 68/101/67 80/221/78 79/102/79
f 78/222/80 66/103/69 79/102/79
f 77/106/81 65/89/70 78/105/80
f 76/107/82 64/90/71 77/106/81
f 75/109/84 63/92/72 76/107/82
f 74/126/85 62/108/83 75/109/84
f 73/93/73 61/63/51 74/111/85
f 95/114/87 83/96/75 96/113/86
f 94/115/88 82/97/76 95/114/87
f 93/116/89 81/98/77 94/115/88
f 92/223/90 80/99/78 93/116/89
f 91/224/97 79/117/79 92/119/90
f 79/117/79 91/224/97 90/121/91
f 78/120/80 90/121/91 89/123/92
f 77/106/81 89/225/92 88/124/93
f 76/107/82 88/124/93 87/125/94
f 75/109/84 87/125/94 86/127/95
f 74/111/85 86/226/95 85/94/74
f 101/142/99 113/227/113 112/143/100
f 105/145/102 104/150/105 103/146/103
f 99/172/114 98/147/104 103/149/103
f 104/150/105 117/174/115 116/151/106
f 104/152/105 105/157/102 101/142/99
f 102/144/101 108/228/108 109/153/107
f 106/155/109 107/229/110 109/156/107
f 105/157/102 109/230/107 107/158/110
f 108/231/108 102/148/101 106/159/109
f 101/161/99 107/232/110 106/162/109
f 111/164/112 112/233/100 113/165/113
f 100/167/98 112/234/100 111/168/112
f 113/235/113 101/169/99 110/171/111
f 110/236/111 98/147/104 111/173/112
f 117/174/115 121/181/118 120/175/116
f 100/141/98 115/183/117 117/176/115
f 114/185/121 99/172/114 116/177/106
f 99/179/114 114/187/121 115/180/117
f 121/181/118 125/204/125 124/182/119
f 121/189/118 117/176/115 119/184/120
f 116/177/106 120/191/116 118/186/122
f 114/187/121 118/193/122 119/188/120
f 125/195/125 121/189/118 123/190/123
f 120/191/116 124/197/119 122/192/124
f 118/193/122 122/237/124 123/194/123
f 127/238/128 125/195/125 126/196/126
f 124/197/119 127/239/128 126/198/126
