# Blender v2.69 (sub 0) OBJ File: 'gemstand.blend'
# www.blender.org
g Cube
v -0.000000 0.001265 -0.200000
v -0.076537 0.001265 -0.184776
v -0.141421 0.001265 -0.141421
v -0.184776 0.001265 -0.076537
v -0.200000 0.001265 0.000000
v -0.184776 0.001265 0.076537
v -0.141421 0.001265 0.141421
v -0.076537 0.001265 0.184776
v -0.000000 0.001265 0.200000
v 0.076537 0.001265 0.184776
v 0.141421 0.001265 0.141421
v 0.184776 0.001265 0.076537
v 0.200000 0.001265 -0.000000
v 0.184776 0.001265 -0.076537
v 0.141421 0.001265 -0.141421
v 0.076537 0.001265 -0.184776
v -0.000000 0.021265 -0.180000
v -0.068883 0.021265 -0.166298
v -0.127279 0.021265 -0.127279
v -0.166298 0.021265 -0.068883
v -0.180000 0.021265 0.000000
v -0.166298 0.021265 0.068883
v -0.127279 0.021265 0.127279
v -0.068883 0.021265 0.166298
v -0.000000 0.021265 0.180000
v 0.068883 0.021265 0.166298
v 0.127279 0.021265 0.127279
v 0.166298 0.021265 0.068883
v 0.180000 0.021265 -0.000000
v 0.166298 0.021265 -0.068883
v 0.127279 0.021265 -0.127279
v 0.068883 0.021265 -0.166298
v -0.000000 0.033265 -0.090000
v -0.034442 0.033265 -0.083149
v -0.063640 0.033265 -0.063640
v -0.083149 0.033265 -0.034442
v -0.090000 0.033265 0.000000
v -0.083149 0.033265 0.034442
v -0.063640 0.033265 0.063640
v -0.034442 0.033265 0.083149
v -0.000000 0.033265 0.090000
v 0.034441 0.033265 0.083149
v 0.063640 0.033265 0.063640
v 0.083149 0.033265 0.034442
v 0.090000 0.033265 -0.000000
v 0.083149 0.033265 -0.034442
v 0.063640 0.033265 -0.063640
v 0.034441 0.033265 -0.083149
v -0.000000 0.112500 -0.018000
v -0.006888 0.112500 -0.016630
v -0.012728 0.112500 -0.012728
v -0.016630 0.112500 -0.006888
v -0.018000 0.112500 -0.000000
v -0.016630 0.112500 0.006888
v -0.012728 0.112500 0.012728
v -0.006888 0.112500 0.016630
v -0.000000 0.112500 0.018000
v 0.006888 0.112500 0.016630
v 0.012728 0.112500 0.012728
v 0.016630 0.112500 0.006888
v 0.018000 0.112500 -0.000000
v 0.016630 0.112500 -0.006888
v 0.012728 0.112500 -0.012728
v 0.006888 0.112500 -0.016630
v -0.000000 0.862500 -0.018000
v -0.006888 0.862500 -0.016630
v -0.012728 0.862500 -0.012728
v -0.016630 0.862500 -0.006888
v -0.018000 0.862500 -0.000000
v -0.016630 0.862500 0.006888
v -0.012728 0.862500 0.012728
v -0.006888 0.862500 0.016630
v -0.000000 0.862500 0.018000
v 0.006888 0.862500 0.016630
v 0.012728 0.862500 0.012728
v 0.016630 0.862500 0.006888
v 0.018000 0.862500 -0.000000
v 0.016630 0.862500 -0.006888
v 0.012728 0.862500 -0.012728
v 0.006888 0.862500 -0.016630
v -0.000000 0.866500 -0.025200
v -0.009644 0.866500 -0.023282
v -0.017819 0.866500 -0.017819
v -0.023282 0.866500 -0.009644
v -0.025200 0.866500 -0.000000
v -0.023282 0.866500 0.009644
v -0.017819 0.866500 0.017819
v -0.009644 0.866500 0.023282
v -0.000000 0.866500 0.025200
v 0.009644 0.866500 0.023282
v 0.017819 0.866500 0.017819
v 0.023282 0.866500 0.009644
v 0.025200 0.866500 -0.000000
v 0.023282 0.866500 -0.009644
v 0.017819 0.866500 -0.017819
v 0.009644 0.866500 -0.023282
v -0.000000 0.878500 -0.035280
v -0.013501 0.878500 -0.032594
v -0.024947 0.878500 -0.024947
v -0.032595 0.878500 -0.013501
v -0.035280 0.878500 0.000000
v -0.032595 0.878500 0.013501
v -0.024947 0.878500 0.024947
v -0.013501 0.878500 0.032594
v -0.000000 0.878500 0.035280
v 0.013501 0.878500 0.032594
v 0.024947 0.878500 0.024947
v 0.032594 0.878500 0.013501
v 0.035280 0.878500 -0.000000
v 0.032594 0.878500 -0.013501
v 0.024947 0.878500 -0.024947
v 0.013501 0.878500 -0.032594
v -0.000049 0.902144 -0.001093
v 0.025835 0.957422 0.014427
v -0.009935 0.957422 0.024020
v -0.032043 0.957422 -0.001093
v -0.009935 0.957422 -0.026206
v 0.025835 0.957422 -0.016614
v 0.009838 1.046865 0.024020
v -0.025933 1.046865 0.014427
v -0.025933 1.046865 -0.016614
v 0.009838 1.046865 -0.026206
v 0.031946 1.046865 -0.001093
v -0.000049 1.102144 -0.001093
vt 0.073959 0.245128
vt 0.055533 0.200643
vt 0.108007 0.279175
vt 0.551369 0.067636
vt 0.591406 0.084220
vt 0.540536 0.122102
vt 0.632310 0.245128
vt 0.598262 0.279175
vt 0.622049 0.238272
vt 0.055533 0.807084
vt 0.055533 0.758946
vt 0.068765 0.804420
vt 0.897547 0.774207
vt 0.896938 0.728760
vt 0.910601 0.768050
vt 0.598262 0.073959
vt 0.632310 0.108007
vt 0.408667 0.152492
vt 0.427093 0.108007
vt 0.420770 0.154899
vt 0.897547 0.680687
vt 0.910053 0.727147
vt 0.427093 0.245128
vt 0.408667 0.200642
vt 0.437354 0.238272
vt 0.505626 0.297602
vt 0.461141 0.279175
vt 0.508034 0.285498
vt 0.553777 0.297602
vt 0.591406 0.268915
vt 0.056946 0.714048
vt 0.068765 0.761096
vt 0.056946 0.851133
vt 0.070037 0.844064
vt 0.461141 0.073959
vt 0.437354 0.114863
vt 0.553777 0.055533
vt 0.420770 0.198235
vt 0.467997 0.268915
vt 0.551369 0.285498
vt 0.560554 0.130394
vt 0.575875 0.145715
vt 0.535872 0.167332
vt 0.475236 0.187401
vt 0.498849 0.222741
vt 0.540536 0.231033
vt 0.575875 0.207419
vt 0.638633 0.154899
vt 0.638633 0.198235
vt 0.584167 0.165733
vt 0.467997 0.084220
vt 0.508034 0.067636
vt 0.498849 0.130393
vt 0.622049 0.114863
vt 0.475236 0.165733
vt 0.518868 0.122102
vt 0.483528 0.207419
vt 0.518868 0.231033
vt 0.560554 0.222741
vt 0.584167 0.187401
vt 0.483528 0.145715
vt 0.788086 0.517018
vt 0.784120 0.516978
vt 0.808331 0.056052
vt 0.518809 0.174400
vt 0.569295 0.429120
vt 0.568731 0.450747
vt 0.517553 0.434191
vt 0.520467 0.182738
vt 0.527535 0.187460
vt 0.535872 0.185802
vt 0.769857 0.568511
vt 0.749698 0.567025
vt 0.779791 0.516796
vt 0.811331 0.569622
vt 0.791500 0.569423
vt 0.520467 0.170397
vt 0.567688 0.470256
vt 0.517440 0.438517
vt 0.055533 0.602983
vt 0.055533 0.581321
vt 0.100938 0.593227
vt 0.523531 0.185802
vt 0.922836 0.055915
vt 0.944467 0.055533
vt 0.929719 0.101787
vt 0.538936 0.182738
vt 0.569295 0.408667
vt 0.517553 0.430101
vt 0.778665 0.933552
vt 0.778665 0.929218
vt 0.783023 0.934418
vt 0.517440 0.426868
vt 0.055741 0.416474
vt 0.517232 0.442419
vt 0.055741 0.428123
vt 0.100938 0.588895
vt 0.562347 0.592405
vt 0.100576 0.600185
vt 0.100811 0.597192
vt 0.561985 0.599362
vt 0.934045 0.101711
vt 0.936238 0.563558
vt 0.922397 0.101613
vt 0.925629 0.101753
vt 0.928915 0.563383
vt 0.804365 0.056012
vt 0.055854 0.419707
vt 0.791086 0.516909
vt 0.811331 0.055943
vt 0.100811 0.584854
vt 0.562347 0.588072
vt 0.055854 0.423798
vt 0.562220 0.596369
vt 0.937949 0.101535
vt 0.940564 0.563481
vt 0.932147 0.563523
vt 0.775759 0.516498
vt 0.800037 0.055830
vt 0.062873 0.971177
vt 0.063051 0.965520
vt 0.069787 0.970118
vt 0.761602 0.940620
vt 0.765606 0.942278
vt 0.759134 0.944313
vt 0.773943 0.940620
vt 0.777007 0.937555
vt 0.776411 0.944313
vt 0.756879 0.933552
vt 0.758538 0.937555
vt 0.752522 0.934418
vt 0.769939 0.942278
vt 0.764739 0.946635
vt 0.758538 0.925214
vt 0.756879 0.929218
vt 0.754844 0.922746
vt 0.765606 0.920492
vt 0.761602 0.922150
vt 0.764739 0.916134
vt 0.773943 0.922150
vt 0.769939 0.920492
vt 0.776411 0.918456
vt 0.777007 0.925214
vt 0.783023 0.928351
vt 0.780701 0.940023
vt 0.754844 0.940023
vt 0.770806 0.946635
vt 0.752522 0.928351
vt 0.759134 0.918456
vt 0.770806 0.916134
vt 0.780701 0.922746
vt 0.936388 0.918717
vt 0.930382 0.924723
vt 0.939639 0.910870
vt 0.063051 0.982793
vt 0.062873 0.977243
vt 0.070037 0.986380
vt 0.749672 0.943479
vt 0.278385 0.956100
vt 0.278534 0.950632
vt 0.285381 0.954525
vt 0.554497 0.961717
vt 0.554497 0.955651
vt 0.562347 0.963057
vt 0.749672 0.919291
vt 0.407326 0.962105
vt 0.407326 0.956048
vt 0.415108 0.954525
vt 0.779866 0.913285
vt 0.069787 0.978609
vt 0.278534 0.967883
vt 0.278385 0.962158
vt 0.285590 0.971021
vt 0.779866 0.949485
vt 0.554319 0.949994
vt 0.562347 0.954566
vt 0.285381 0.963006
vt 0.554319 0.967267
vt 0.562098 0.970827
vt 0.407177 0.950580
vt 0.414899 0.946870
vt 0.407177 0.967830
vt 0.414899 0.971021
vt 0.783417 0.802219
vt 0.763516 0.770224
vt 0.785872 0.766383
vt 0.415108 0.802977
vt 0.397363 0.835805
vt 0.396656 0.799965
vt 0.199554 0.835805
vt 0.181102 0.804849
vt 0.199117 0.802994
vt 0.539990 0.835580
vt 0.526173 0.799007
vt 0.541508 0.802392
vt 0.562347 0.805221
vt 0.414671 0.746859
vt 0.765033 0.713876
vt 0.181102 0.749888
vt 0.539991 0.746044
vt 0.562347 0.749884
vt 0.749698 0.717261
vt 0.785872 0.711046
vt 0.199554 0.746875
vt 0.396656 0.745004
vt 0.763515 0.680687
vt 0.181810 0.714048
vt 0.559892 0.714048
vt 0.415108 0.714048
vt 0.200642 0.055533
vt 0.108007 0.073959
vt 0.152492 0.055533
vt 0.245128 0.073959
vt 0.279175 0.108007
vt 0.297602 0.152492
vt 0.073959 0.108007
vt 0.297602 0.200642
vt 0.055533 0.152492
vt 0.152492 0.297602
vt 0.245128 0.279175
vt 0.200643 0.297602
vt 0.279175 0.245128
vt 0.910601 0.683882
vt 0.070037 0.720688
vt 0.538936 0.170397
vt 0.518809 0.178734
vt 0.531868 0.187460
vt 0.523531 0.167332
vt 0.055533 0.432025
vt 0.562220 0.584032
vt 0.944467 0.563305
vt 0.796005 0.055533
vt 0.070037 0.962198
vt 0.896938 0.902376
vt 0.900188 0.918717
vt 0.896938 0.910870
vt 0.900188 0.894529
vt 0.922535 0.927973
vt 0.914041 0.927973
vt 0.906194 0.924723
vt 0.939639 0.902376
vt 0.936388 0.894529
vt 0.906194 0.888523
vt 0.922535 0.885272
vt 0.914041 0.885272
vt 0.930382 0.888523
vt 0.755678 0.949485
vt 0.285590 0.946870
vt 0.755678 0.913285
vt 0.415108 0.963006
vt 0.785872 0.919291
vt 0.785872 0.943479
vt 0.562098 0.946646
vn 0.000000 -1.000000 0.000000
vn -0.074839 0.990885 -0.112004
vn -0.396639 0.700215 0.593613
vn -0.700215 0.700214 0.139281
vn 0.139281 0.700214 -0.700215
vn -0.593614 0.700214 -0.396640
vn 0.593614 0.700214 -0.396640
vn -0.139281 0.700214 -0.700215
vn 0.700214 0.700215 0.139281
vn 0.396639 0.700215 0.593613
vn -0.139281 0.700214 0.700215
vn -0.593613 0.700214 0.396640
vn -0.700215 0.700214 -0.139281
vn 0.396640 0.700215 -0.593613
vn -0.396640 0.700214 -0.593614
vn 0.700214 0.700215 -0.139282
vn 0.593613 0.700215 0.396640
vn 0.139281 0.700214 0.700215
vn -0.620727 0.665339 -0.414756
vn 0.132118 0.990886 -0.026280
vn 0.112004 0.990886 0.074839
vn 0.026280 0.990886 0.132118
vn -0.074839 0.990885 0.112004
vn -0.132118 0.990886 0.026280
vn 0.026280 0.990886 -0.132118
vn -0.112004 0.990886 -0.074839
vn 0.112004 0.990886 -0.074839
vn -0.026280 0.990885 -0.132118
vn 0.132118 0.990885 0.026280
vn 0.074839 0.990886 0.112004
vn -0.026280 0.990886 0.132118
vn -0.112004 0.990885 0.074839
vn -0.132118 0.990886 -0.026280
vn 0.074839 0.990885 -0.112004
vn -0.980785 -0.000000 -0.195090
vn 0.620726 0.665339 -0.414756
vn -0.145643 0.665339 -0.732197
vn 0.732197 0.665339 0.145643
vn 0.414756 0.665339 0.620727
vn -0.145643 0.665339 0.732197
vn -0.620727 0.665339 0.414757
vn -0.732197 0.665339 -0.145643
vn 0.414756 0.665339 -0.620727
vn -0.414756 0.665339 -0.620727
vn 0.732197 0.665339 -0.145643
vn 0.620726 0.665339 0.414757
vn 0.145643 0.665339 0.732197
vn -0.414756 0.665339 0.620727
vn -0.732197 0.665339 0.145643
vn 0.145643 0.665339 -0.732197
vn -0.483387 -0.870108 0.096172
vn 0.555570 0.000000 -0.831470
vn -0.555571 -0.000000 -0.831469
vn 0.980785 0.000000 -0.195091
vn 0.831469 0.000000 0.555571
vn 0.195090 0.000000 0.980785
vn -0.555571 -0.000000 0.831469
vn -0.980785 -0.000000 0.195090
vn 0.195090 0.000000 -0.980785
vn -0.831470 -0.000000 -0.555570
vn 0.831470 0.000000 -0.555570
vn -0.195090 -0.000000 -0.980785
vn 0.980785 0.000000 0.195090
vn 0.555570 0.000000 0.831470
vn -0.195090 -0.000000 0.980785
vn -0.831470 -0.000000 0.555570
vn -0.641730 -0.635855 0.428802
vn 0.096151 -0.870100 -0.483405
vn -0.409798 -0.870111 -0.273812
vn 0.409797 -0.870111 -0.273812
vn -0.096152 -0.870114 -0.483380
vn 0.483388 -0.870109 0.096156
vn 0.273817 -0.870108 0.409802
vn -0.096153 -0.870114 0.483380
vn -0.409797 -0.870111 0.273812
vn -0.483388 -0.870111 -0.096140
vn 0.273822 -0.870125 -0.409760
vn -0.273818 -0.870110 -0.409795
vn 0.483388 -0.870109 -0.096156
vn 0.409796 -0.870108 0.273823
vn 0.096152 -0.870107 0.483393
vn -0.273815 -0.870102 0.409815
vn 0.000000 1.000000 0.000000
vn -0.756977 -0.635859 -0.150564
vn 0.428793 -0.635860 -0.641731
vn -0.428792 -0.635857 -0.641734
vn 0.756975 -0.635859 -0.150570
vn 0.641730 -0.635856 0.428801
vn 0.150570 -0.635854 0.756980
vn -0.428792 -0.635857 0.641734
vn -0.756976 -0.635858 0.150570
vn 0.150571 -0.635856 -0.756978
vn -0.641732 -0.635857 -0.428796
vn 0.641730 -0.635856 -0.428801
vn -0.150570 -0.635851 -0.756983
vn 0.756975 -0.635859 0.150570
vn 0.428789 -0.635854 0.641739
vn -0.150571 -0.635857 0.756977
vn 0.241110 -0.365340 0.899107
vn 0.905635 -0.424058 0.000000
vn -0.688430 -0.398454 0.606052
vn -0.688430 -0.398454 -0.606052
vn 0.241110 -0.365339 -0.899107
vn 0.997674 -0.068159 0.000000
vn 0.258591 -0.057167 0.964294
vn -0.749085 -0.063254 0.659447
vn -0.749085 -0.063254 -0.659448
vn 0.258591 -0.057167 -0.964294
vn 0.749084 0.063254 0.659449
vn -0.258591 0.057167 0.964294
vn -0.997674 0.068159 0.000000
vn -0.258591 0.057167 -0.964294
vn 0.749084 0.063254 -0.659449
vn 0.688430 0.398455 0.606051
vn -0.241109 0.365340 0.899107
vn -0.905635 0.424059 0.000000
vn -0.241109 0.365339 -0.899107
vn 0.688429 0.398454 -0.606053
vn -0.396640 0.700214 0.593613
vn -0.700215 0.700214 0.139282
vn -0.593613 0.700215 -0.396640
vn 0.593613 0.700215 -0.396640
vn 0.700215 0.700215 0.139281
vn 0.396640 0.700214 0.593613
vn -0.593613 0.700215 0.396640
vn 0.396640 0.700214 -0.593614
vn -0.396639 0.700215 -0.593613
vn 0.700215 0.700214 -0.139281
vn 0.593614 0.700214 0.396640
vn 0.139281 0.700215 0.700214
vn -0.620727 0.665338 -0.414757
vn 0.026280 0.990885 0.132118
vn -0.112004 0.990885 -0.074839
vn -0.026280 0.990886 -0.132118
vn 0.074839 0.990885 0.112004
vn -0.112004 0.990886 0.074839
vn 0.074839 0.990886 -0.112004
vn 0.414755 0.665339 0.620727
vn -0.145644 0.665339 0.732197
vn -0.620727 0.665338 0.414756
vn -0.732197 0.665339 -0.145642
vn -0.414757 0.665339 -0.620726
vn 0.620727 0.665339 0.414756
vn 0.145643 0.665340 0.732196
vn -0.483388 -0.870111 0.096144
vn 0.831469 0.000000 -0.555570
vn -0.831469 -0.000000 0.555570
vn -0.641734 -0.635859 0.428790
vn 0.096152 -0.870112 -0.483384
vn -0.409796 -0.870109 -0.273820
vn 0.409796 -0.870109 -0.273821
vn -0.096151 -0.870102 -0.483401
vn 0.483389 -0.870110 0.096144
vn 0.273818 -0.870113 0.409788
vn -0.096151 -0.870102 0.483401
vn -0.409797 -0.870112 0.273810
vn -0.483388 -0.870109 -0.096156
vn 0.273816 -0.870105 -0.409807
vn -0.273817 -0.870109 -0.409797
vn 0.483388 -0.870110 -0.096153
vn 0.409796 -0.870109 0.273820
vn 0.096153 -0.870122 0.483366
vn -0.273819 -0.870113 0.409788
vn 0.000000 1.000000 -0.000026
vn 0.000000 1.000000 0.000036
vn 0.000000 1.000000 -0.000002
vn 0.000000 1.000000 0.000002
vn 0.000000 1.000000 -0.000003
vn 0.000000 1.000000 -0.000001
vn 0.000000 1.000000 -0.000013
vn 0.000000 1.000000 0.000005
vn -0.756977 -0.635858 -0.150568
vn -0.428795 -0.635862 -0.641727
vn 0.756975 -0.635859 -0.150572
vn 0.641734 -0.635860 0.428789
vn 0.150572 -0.635859 0.756975
vn -0.428794 -0.635861 0.641730
vn -0.756977 -0.635859 0.150564
vn 0.150572 -0.635863 -0.756972
vn -0.641733 -0.635858 -0.428794
vn 0.641734 -0.635860 -0.428790
vn -0.150572 -0.635859 -0.756975
vn 0.756976 -0.635859 0.150568
vn 0.428793 -0.635859 0.641732
vn -0.150572 -0.635859 0.756975
s off
f 2/1/1 1/2/1 3/3/1
f 18/4/2 19/5/2 34/6/2
f 7/7/3 8/8/3 23/9/3
f 5/10/4 6/11/4 21/12/4
f 16/13/5 1/14/5 32/15/5
f 3/16/6 4/17/6 19/5/6
f 14/18/7 15/19/7 30/20/7
f 1/14/8 2/21/8 17/22/8
f 12/23/9 13/24/9 28/25/9
f 10/26/10 11/27/10 26/28/10
f 8/8/11 9/29/11 24/30/11
f 6/11/12 7/31/12 22/32/12
f 4/33/13 5/10/13 20/34/13
f 15/19/14 16/35/14 31/36/14
f 2/37/15 3/16/15 18/4/15
f 13/24/16 14/18/16 29/38/16
f 11/27/17 12/23/17 27/39/17
f 9/29/18 10/26/18 25/40/18
f 35/41/19 36/42/19 51/43/19
f 29/38/20 30/20/20 45/44/20
f 27/39/21 28/25/21 43/45/21
f 25/40/22 26/28/22 41/46/22
f 23/9/23 24/30/23 39/47/23
f 21/48/24 22/49/24 37/50/24
f 32/51/25 17/52/25 48/53/25
f 19/5/26 20/54/26 35/41/26
f 30/20/27 31/36/27 46/55/27
f 17/52/28 18/4/28 33/56/28
f 28/25/29 29/38/29 44/57/29
f 26/28/30 27/39/30 42/58/30
f 24/30/31 25/40/31 40/59/31
f 22/49/32 23/9/32 38/60/32
f 20/54/33 21/48/33 36/42/33
f 31/36/34 32/51/34 47/61/34
f 52/62/35 53/63/35 68/64/35
f 46/55/36 47/61/36 62/65/36
f 33/66/37 34/67/37 49/68/37
f 44/57/38 45/44/38 60/69/38
f 42/58/39 43/45/39 58/70/39
f 40/59/40 41/46/40 56/71/40
f 38/72/41 39/73/41 54/74/41
f 36/75/42 37/76/42 52/62/42
f 47/61/43 48/53/43 63/77/43
f 34/67/44 35/78/44 50/79/44
f 45/80/45 46/81/45 61/82/45
f 43/45/46 44/57/46 59/83/46
f 41/84/47 42/85/47 57/86/47
f 39/47/48 40/59/48 55/87/48
f 37/76/49 38/72/49 53/63/49
f 48/88/50 33/66/50 64/89/50
f 69/90/51 70/91/51 85/92/51
f 63/93/52 64/89/52 79/94/52
f 50/79/53 51/95/53 66/96/53
f 61/82/54 62/97/54 77/98/54
f 59/99/55 60/100/55 75/101/55
f 57/86/56 58/102/56 73/103/56
f 55/104/57 56/105/57 71/106/57
f 53/63/58 54/74/58 69/107/58
f 64/89/59 49/68/59 80/108/59
f 51/109/60 52/62/60 67/110/60
f 62/97/61 63/111/61 78/112/61
f 49/68/62 50/79/62 65/113/62
f 60/100/63 61/82/63 76/114/63
f 58/102/64 59/115/64 74/116/64
f 56/105/65 57/86/65 72/117/65
f 54/74/66 55/118/66 70/119/66
f 86/120/67 87/121/67 102/122/67
f 80/123/68 65/124/68 96/125/68
f 67/126/69 68/127/69 83/128/69
f 78/129/70 79/130/70 94/131/70
f 65/124/71 66/132/71 81/133/71
f 76/134/72 77/135/72 92/136/72
f 74/137/73 75/138/73 90/139/73
f 72/140/74 73/141/74 88/142/74
f 70/91/75 71/143/75 86/144/75
f 68/127/76 69/90/76 84/145/76
f 79/130/77 80/123/77 95/146/77
f 66/132/78 67/126/78 82/147/78
f 77/135/79 78/129/79 93/148/79
f 75/138/80 76/134/80 91/149/80
f 73/141/81 74/137/81 89/150/81
f 71/143/82 72/140/82 87/151/82
f 98/152/83 99/153/83 97/154/83
f 84/155/84 85/156/84 100/157/84
f 95/146/85 96/125/85 111/158/85
f 82/159/86 83/160/86 98/161/86
f 93/162/87 94/163/87 109/164/87
f 91/149/88 92/136/88 108/165/88
f 89/166/89 90/167/89 106/168/89
f 87/151/90 88/142/90 104/169/90
f 85/156/91 86/120/91 101/170/91
f 96/171/92 81/172/92 112/173/92
f 83/128/93 84/145/93 99/174/93
f 94/163/94 95/175/94 110/176/94
f 81/172/95 82/159/95 97/177/95
f 92/178/96 93/162/96 108/179/96
f 90/167/97 91/180/97 107/181/97
f 88/182/98 89/166/98 104/183/98
f 113/184/99 114/185/99 115/186/99
f 114/187/100 113/188/100 118/189/100
f 113/190/101 115/191/101 116/192/101
f 113/193/102 116/194/102 117/195/102
f 113/193/103 117/195/103 118/196/103
f 114/187/104 118/189/104 123/197/104
f 115/186/105 114/185/105 119/198/105
f 116/192/106 115/191/106 120/199/106
f 117/195/107 116/194/107 121/200/107
f 118/196/108 117/195/108 122/201/108
f 114/185/109 123/202/109 119/198/109
f 115/186/110 119/198/110 120/203/110
f 116/192/111 120/199/111 121/204/111
f 117/195/112 121/200/112 122/201/112
f 118/189/113 122/205/113 123/197/113
f 119/198/114 123/202/114 124/206/114
f 120/203/115 119/198/115 124/206/115
f 121/204/116 120/199/116 124/207/116
f 122/201/117 121/200/117 124/208/117
f 123/197/118 122/205/118 124/209/118
f 12/210/1 14/211/1 13/212/1
f 11/213/1 14/211/1 12/210/1
f 10/214/1 14/211/1 11/213/1
f 9/215/1 14/211/1 10/214/1
f 9/215/1 15/216/1 14/211/1
f 8/217/1 15/216/1 9/215/1
f 16/218/1 15/216/1 8/217/1
f 4/219/1 6/220/1 5/221/1
f 1/2/1 16/218/1 8/217/1
f 3/3/1 1/2/1 8/217/1
f 4/219/1 3/3/1 6/220/1
f 3/3/1 8/217/1 7/222/1
f 6/220/1 3/3/1 7/222/1
f 19/5/2 35/41/2 34/6/2
f 8/8/119 24/30/119 23/9/119
f 6/11/120 22/32/120 21/12/120
f 1/14/5 17/22/5 32/15/5
f 4/17/121 20/54/121 19/5/121
f 15/19/122 31/36/122 30/20/122
f 2/21/8 18/223/8 17/22/8
f 13/24/123 29/38/123 28/25/123
f 11/27/124 27/39/124 26/28/124
f 9/29/11 25/40/11 24/30/11
f 7/31/125 23/224/125 22/32/125
f 5/10/13 21/12/13 20/34/13
f 16/35/126 32/51/126 31/36/126
f 3/16/127 19/5/127 18/4/127
f 14/18/128 30/20/128 29/38/128
f 12/23/129 28/25/129 27/39/129
f 10/26/130 26/28/130 25/40/130
f 36/42/131 52/225/131 51/43/131
f 30/20/20 46/55/20 45/44/20
f 28/25/21 44/57/21 43/45/21
f 26/28/132 42/58/132 41/46/132
f 24/30/23 40/59/23 39/47/23
f 22/49/24 38/60/24 37/50/24
f 17/52/25 33/56/25 48/53/25
f 20/54/133 36/42/133 35/41/133
f 31/36/27 47/61/27 46/55/27
f 18/4/134 34/6/134 33/56/134
f 29/38/29 45/44/29 44/57/29
f 27/39/135 43/45/135 42/58/135
f 25/40/31 41/46/31 40/59/31
f 23/9/136 39/47/136 38/60/136
f 21/48/33 37/50/33 36/42/33
f 32/51/137 48/53/137 47/61/137
f 53/63/35 69/107/35 68/64/35
f 47/61/36 63/77/36 62/65/36
f 34/67/37 50/79/37 49/68/37
f 45/44/38 61/226/38 60/69/38
f 43/45/138 59/83/138 58/70/138
f 41/46/139 57/227/139 56/71/139
f 39/73/140 55/118/140 54/74/140
f 37/76/141 53/63/141 52/62/141
f 48/53/43 64/228/43 63/77/43
f 35/78/142 51/95/142 50/79/142
f 46/81/45 62/97/45 61/82/45
f 44/57/143 60/69/143 59/83/143
f 42/85/144 58/102/144 57/86/144
f 40/59/48 56/71/48 55/87/48
f 38/72/49 54/74/49 53/63/49
f 33/66/50 49/68/50 64/89/50
f 70/91/145 86/144/145 85/92/145
f 64/89/52 80/108/52 79/94/52
f 51/95/53 67/229/53 66/96/53
f 62/97/54 78/112/54 77/98/54
f 60/100/55 76/114/55 75/101/55
f 58/102/56 74/116/56 73/103/56
f 56/105/57 72/117/57 71/106/57
f 54/74/58 70/119/58 69/107/58
f 49/68/59 65/113/59 80/108/59
f 52/62/60 68/64/60 67/110/60
f 63/111/146 79/230/146 78/112/146
f 50/79/62 66/96/62 65/113/62
f 61/82/63 77/98/63 76/114/63
f 59/115/64 75/231/64 74/116/64
f 57/86/65 73/103/65 72/117/65
f 55/118/147 71/232/147 70/119/147
f 87/121/148 103/233/148 102/122/148
f 65/124/149 81/133/149 96/125/149
f 68/127/150 84/145/150 83/128/150
f 79/130/151 95/146/151 94/131/151
f 66/132/152 82/147/152 81/133/152
f 77/135/153 93/148/153 92/136/153
f 75/138/154 91/149/154 90/139/154
f 73/141/155 89/150/155 88/142/155
f 71/143/156 87/151/156 86/144/156
f 69/90/157 85/92/157 84/145/157
f 80/123/158 96/125/158 95/146/158
f 67/126/159 83/128/159 82/147/159
f 78/129/160 94/131/160 93/148/160
f 76/134/161 92/136/161 91/149/161
f 74/137/162 90/139/162 89/150/162
f 72/140/163 88/142/163 87/151/163
f 105/234/164 103/235/164 104/236/164
f 106/237/165 103/235/165 105/234/165
f 100/238/83 101/239/83 102/240/83
f 99/153/83 100/238/83 102/240/83
f 97/154/166 99/153/166 102/240/166
f 97/154/167 102/240/167 103/235/167
f 97/154/168 103/235/168 106/237/168
f 112/241/83 97/154/83 106/237/83
f 111/242/169 112/241/169 106/237/169
f 111/242/83 106/237/83 107/243/83
f 109/244/170 107/243/170 108/245/170
f 110/246/83 111/242/83 107/243/83
f 109/244/171 110/246/171 107/243/171
f 85/156/172 101/170/172 100/157/172
f 96/125/85 112/247/85 111/158/85
f 83/160/173 99/248/173 98/161/173
f 94/163/174 110/176/174 109/164/174
f 107/249/175 91/149/175 108/165/175
f 105/250/176 89/166/176 106/168/176
f 103/251/177 87/151/177 104/169/177
f 86/120/178 102/122/178 101/170/178
f 81/172/179 97/177/179 112/173/179
f 84/145/180 100/252/180 99/174/180
f 95/175/181 111/253/181 110/176/181
f 82/159/182 98/161/182 97/177/182
f 93/162/183 109/164/183 108/179/183
f 106/168/184 90/167/184 107/181/184
f 89/166/185 105/250/185 104/183/185
