# Blender v2.69 (sub 0) OBJ File: 'wall.blend'
# www.blender.org
g Cube
v 1.000000 0.000000 -1.000000
v 1.000000 0.000000 1.000000
v -1.000000 0.000000 1.000000
v -1.000000 0.000000 -1.000000
v 1.000000 2.000000 -0.999999
v 0.999999 2.000000 1.000001
v -1.000000 2.000000 1.000000
v -1.000000 2.000000 -1.000000
v -1.000000 2.000000 -1.000000
v 1.000000 2.000000 -0.999999
v -1.000000 0.000000 -1.000000
v 1.000000 0.000000 -1.000000
v -1.000000 2.000000 1.000000
v 0.999999 2.000000 1.000001
v -1.000000 0.000000 1.000000
v 1.000000 0.000000 1.000000
vt 1.000000 0.000000
vt 1.000000 1.000000
vt 0.000000 0.000000
vt 0.000000 1.000000
vn 1.000000 -0.000000 0.000000
vn -1.000000 -0.000000 -0.000000
vn 0.000000 0.000000 -1.000000
vn 0.000000 -0.000000 1.000000
vn 1.000000 0.000000 0.000001
s off
f 1/1/1 5/2/1 2/3/1
f 3/1/2 7/2/2 4/3/2
f 10/4/3 12/3/3 9/2/3
f 16/1/4 14/2/4 15/3/4
f 5/2/5 6/4/5 2/3/5
f 7/2/2 8/4/2 4/3/2
f 12/3/3 11/1/3 9/2/3
f 14/2/4 13/4/4 15/3/4
