# Blender v2.69 (sub 0) OBJ File: 'zombie_attack.blend'
# www.blender.org
g Cube
v 0.125829 1.376215 -0.100307
v 0.125829 1.308603 0.202969
v -0.124457 1.308603 0.202969
v -0.124457 1.376215 -0.100308
v 0.125829 1.697862 -0.028600
v 0.125829 1.630250 0.274677
v -0.124457 1.630250 0.274676
v -0.124457 1.697862 -0.028600
v 0.062371 1.344109 -0.064800
v 0.062371 1.304277 0.113868
v -0.060999 1.304277 0.113868
v -0.060999 1.344109 -0.064800
v 0.062371 1.256003 -0.104174
v 0.062371 1.248809 0.149577
v -0.060999 1.248809 0.149577
v -0.060999 1.256003 -0.104174
v 0.062371 1.057970 -0.109789
v 0.062371 1.050775 0.143962
v -0.060999 1.050775 0.143962
v -0.060999 1.057970 -0.109789
v 0.268335 1.256003 -0.104174
v 0.268335 1.248809 0.149577
v 0.268335 1.057970 -0.109789
v 0.268335 1.050775 0.143962
v -0.266329 1.249236 0.134510
v -0.266963 1.256003 -0.104174
v -0.266329 1.051202 0.128895
v -0.266963 1.057970 -0.109789
v 0.349728 1.066497 0.402562
v 0.386038 1.273457 0.405088
v 0.287600 1.046486 0.329704
v 0.277298 1.242071 0.356105
v -0.399586 1.078975 0.113471
v -0.406935 1.025479 -0.076286
v -0.316201 0.996345 0.130269
v -0.310511 0.950797 -0.065835
v 0.046271 0.767956 -0.158272
v 0.046271 0.767956 0.069652
v -0.044899 0.767956 0.069652
v -0.044899 0.767956 -0.158272
v 0.198477 0.767956 -0.158272
v 0.198477 0.767956 0.069652
v -0.197104 0.767956 0.069652
v -0.197104 0.767956 -0.158272
v 0.046271 0.612919 -0.157389
v 0.046271 0.612919 0.064122
v -0.044899 0.612919 0.064122
v -0.044899 0.612919 -0.157389
v 0.198477 0.612919 -0.157389
v 0.198477 0.612919 0.064122
v -0.197104 0.612919 0.064122
v -0.197104 0.612919 -0.157389
v -0.044899 0.316232 0.059557
v -0.044899 0.316232 -0.077926
v -0.197104 0.316232 0.059557
v -0.197104 0.316232 -0.077926
v -0.044899 0.044971 0.032014
v -0.044899 0.044971 -0.109403
v -0.197104 0.044971 0.032014
v -0.197104 0.044971 -0.109403
v -0.044899 0.011918 0.032014
v -0.044899 0.011918 -0.109403
v -0.197104 0.011918 0.032014
v -0.197104 0.011918 -0.109403
v 0.046271 0.320953 -0.077926
v 0.046271 0.320953 0.059557
v 0.198477 0.320953 -0.077926
v 0.198477 0.320953 0.059557
v 0.046271 0.059137 -0.109403
v 0.046271 0.059137 0.032014
v 0.198477 0.059137 -0.109403
v 0.198477 0.059137 0.032014
v 0.046271 0.016640 -0.109403
v 0.046271 0.016640 0.032014
v 0.198477 0.016640 -0.109403
v 0.198477 0.016640 0.032014
v -0.044899 0.044971 0.109811
v -0.197104 0.044971 0.109811
v -0.044899 0.011918 0.109811
v -0.197104 0.011918 0.109811
v 0.046271 0.059137 0.109811
v 0.198477 0.059137 0.109811
v 0.046271 0.016640 0.109811
v 0.198477 0.016640 0.109811
v 0.248299 1.248207 0.796095
v 0.253714 1.337988 0.775878
v 0.199697 1.245959 0.773095
v 0.205112 1.335740 0.752877
v -0.376159 0.750134 0.065305
v -0.402995 0.743437 -0.022637
v -0.325499 0.753186 0.049614
v -0.352334 0.746489 -0.038329
v 0.246106 1.242145 0.833610
v 0.252577 1.349434 0.809450
v 0.183727 1.239280 0.804179
v 0.190198 1.346569 0.780019
v 0.190787 1.272234 0.952408
v 0.197258 1.379523 0.928248
v 0.128408 1.269369 0.922977
v 0.134879 1.376658 0.898817
v -0.383259 0.718095 0.080911
v -0.419272 0.709108 -0.037106
v -0.313408 0.726282 0.058972
v -0.349421 0.717295 -0.059044
v -0.348463 0.597735 0.079459
v -0.384475 0.588747 -0.038558
v -0.297242 0.603759 0.063370
v -0.333254 0.594772 -0.054646
vt 0.890020 0.677929
vt 0.890020 0.559018
vt 0.914464 0.575138
vt 0.880198 0.724064
vt 0.976002 0.724064
vt 0.880198 0.843001
vt 0.851816 0.724064
vt 0.851816 0.850204
vt 0.732879 0.724064
vt 0.608693 0.975757
vt 0.608693 0.849616
vt 0.704497 0.849615
vt 0.789926 0.293637
vt 0.916057 0.293637
vt 0.789926 0.412575
vt 0.885730 0.014191
vt 0.885730 0.140333
vt 0.789926 0.014191
vt 0.944439 0.399410
vt 0.944439 0.329340
vt 0.966307 0.412575
vt 0.985809 0.677893
vt 0.961680 0.645174
vt 0.985809 0.558983
vt 0.961680 0.575121
vt 0.036078 0.198060
vt 0.111896 0.199530
vt 0.034548 0.276883
vt 0.146883 0.370218
vt 0.194080 0.368633
vt 0.147656 0.392075
vt 0.014191 0.197608
vt 0.015107 0.150394
vt 0.914112 0.126398
vt 0.914111 0.056329
vt 0.935980 0.043163
vt 0.635606 0.411727
vt 0.538460 0.413853
vt 0.539068 0.305738
vt 0.194852 0.390491
vt 0.150200 0.467866
vt 0.036994 0.150845
vt 0.112812 0.152316
vt 0.114342 0.073492
vt 0.038523 0.072022
vt 0.103419 0.024004
vt 0.068862 0.394720
vt 0.110367 0.278354
vt 0.220415 0.195466
vt 0.959037 0.871383
vt 0.959037 0.968553
vt 0.880198 0.871383
vt 0.123265 0.295422
vt 0.197397 0.466281
vt 0.276190 0.463636
vt 0.194854 0.574851
vt 0.789926 0.186417
vt 0.887095 0.186417
vt 0.887095 0.265256
vt 0.293439 0.476291
vt 0.330199 0.454076
vt 0.312426 0.583909
vt 0.071406 0.470511
vt 0.021768 0.460290
vt 0.509726 0.867568
vt 0.412557 0.867568
vt 0.412557 0.847762
vt 0.509726 0.642688
vt 0.412557 0.642688
vt 0.509726 0.578985
vt 0.101573 0.332493
vt 0.231090 0.312896
vt 0.273646 0.387845
vt 0.944439 0.287023
vt 0.944439 0.189876
vt 0.961021 0.189587
vt 0.635278 0.695682
vt 0.538108 0.695682
vt 0.538108 0.626907
vt 0.626292 0.303829
vt 0.538108 0.246405
vt 0.219285 0.253716
vt 0.278618 0.254866
vt 0.253082 0.572896
vt 0.196839 0.634162
vt 0.159977 0.576022
vt 0.221092 0.160575
vt 0.664398 0.014191
vt 0.761544 0.016344
vt 0.664965 0.122788
vt 0.573001 0.849615
vt 0.573001 0.934386
vt 0.538108 0.849628
vt 0.103734 0.637288
vt 0.161961 0.635333
vt 0.107478 0.748983
vt 0.255067 0.632207
vt 0.200645 0.747664
vt 0.101749 0.577977
vt 0.222222 0.102325
vt 0.280425 0.161725
vt 0.752188 0.124721
vt 0.663988 0.182125
vt 0.279748 0.196616
vt 0.258873 0.745709
vt 0.204097 0.851437
vt 0.392115 0.257009
vt 0.622877 0.244550
vt 0.618646 0.131059
vt 0.748311 0.679693
vt 0.663790 0.672944
vt 0.674571 0.559879
vt 0.731412 0.411915
vt 0.731772 0.395652
vt 0.761183 0.412575
vt 0.393245 0.198759
vt 0.495947 0.259046
vt 0.566033 0.132210
vt 0.551716 0.028675
vt 0.727029 0.564068
vt 0.747304 0.461525
vt 0.948272 0.442235
vt 0.948272 0.496354
vt 0.890020 0.442257
vt 0.497077 0.200796
vt 0.508596 0.259292
vt 0.605834 0.027490
vt 0.605558 0.014842
vt 0.693344 0.457217
vt 0.748311 0.448913
vt 0.165706 0.747028
vt 0.110809 0.849144
vt 0.281555 0.103475
vt 0.392115 0.163833
vt 0.748757 0.184004
vt 0.744533 0.295694
vt 0.777122 0.449037
vt 0.861638 0.442235
vt 0.787828 0.560286
vt 0.806376 0.659327
vt 0.807681 0.675540
vt 0.776693 0.661716
vt 0.393245 0.105583
vt 0.492332 0.165800
vt 0.691921 0.294528
vt 0.677654 0.394453
vt 0.840284 0.556064
vt 0.860333 0.654984
vt 0.791131 0.908358
vt 0.791131 0.962478
vt 0.732879 0.908380
vt 0.493462 0.107550
vt 0.508596 0.166116
vt 0.677293 0.410715
vt 0.368256 0.426894
vt 0.368256 0.368633
vt 0.380908 0.426894
vt 0.014191 0.938080
vt 0.014191 0.879819
vt 0.030458 0.938080
vt 0.791131 0.878586
vt 0.851816 0.878586
vt 0.851816 0.936847
vt 0.822037 0.878586
vt 0.635606 0.026839
vt 0.694351 0.444605
vt 0.664667 0.442235
vt 0.890020 0.496376
vt 0.890020 0.526148
vt 0.339874 0.879819
vt 0.339874 0.938080
vt 0.310095 0.879819
vt 0.248098 0.038975
vt 0.249760 0.018442
vt 0.262588 0.014191
vt 0.227039 0.332822
vt 0.238114 0.340251
vt 0.704497 0.724064
vt 0.704497 0.821234
vt 0.596222 0.758535
vt 0.635278 0.626907
vt 0.572579 0.501440
vt 0.134686 0.057044
vt 0.055247 0.491086
vt 0.018266 0.606746
vt 0.509726 0.847762
vt 0.482316 0.734933
vt 0.412557 0.578985
vt 0.439967 0.432769
vt 0.260487 0.040532
vt 0.313945 0.017553
vt 0.038773 0.604794
vt 0.014191 0.619625
vt 0.447028 0.734933
vt 0.441570 0.722509
vt 0.475255 0.432769
vt 0.480713 0.420057
vt 0.281713 0.879843
vt 0.281713 0.922003
vt 0.255313 0.879819
vt 0.040499 0.617152
vt 0.018280 0.670929
vt 0.483739 0.722509
vt 0.483739 0.671070
vt 0.438544 0.420057
vt 0.438544 0.368633
vt 0.242231 0.312354
vt 0.289082 0.319113
vt 0.332293 0.579576
vt 0.339874 0.590533
vt 0.596222 0.793823
vt 0.585110 0.750484
vt 0.607867 0.501440
vt 0.564528 0.490145
vt 0.079396 0.879867
vt 0.079396 0.927212
vt 0.058840 0.879819
vt 0.312037 0.595045
vt 0.319459 0.641795
vt 0.585110 0.797840
vt 0.538108 0.797840
vt 0.611884 0.490145
vt 0.611884 0.442235
vt 0.914464 0.645192
vt 0.976002 0.843001
vt 0.732879 0.850204
vt 0.704497 0.975757
vt 0.916057 0.412575
vt 0.789926 0.140333
vt 0.966307 0.315405
vt 0.935980 0.140333
vt 0.880198 0.968553
vt 0.789926 0.265256
vt 0.961021 0.286735
vt 0.538108 0.934399
vt 0.262325 0.849483
vt 0.761544 0.396312
vt 0.509726 0.201042
vt 0.551439 0.016027
vt 0.169037 0.847189
vt 0.777998 0.677929
vt 0.732879 0.962499
vt 0.509726 0.107866
vt 0.861638 0.671197
vt 0.380908 0.368633
vt 0.030458 0.879819
vt 0.732879 0.878608
vt 0.822037 0.936847
vt 0.635329 0.014191
vt 0.663660 0.454847
vt 0.948272 0.526126
vt 0.310095 0.938080
vt 0.311844 0.043894
vt 0.255313 0.921979
vt 0.044588 0.668456
vt 0.441570 0.671070
vt 0.480713 0.368633
vt 0.286070 0.339572
vt 0.058840 0.927164
vt 0.339874 0.638494
vt 0.538108 0.750484
vt 0.564528 0.442235
vn -0.348709 -0.914774 -0.203939
vn -0.000000 0.976039 0.217598
vn 1.000000 -0.000000 -0.000000
vn -0.000001 -0.217597 0.976039
vn -1.000000 -0.000000 -0.000001
vn 0.000000 0.217598 -0.976039
vn -1.000000 0.000000 -0.000000
vn -0.000000 -0.998823 0.048495
vn -0.000000 -0.741739 -0.670689
vn 0.348707 -0.914774 -0.203939
vn 0.000000 0.028340 -0.999598
vn 0.000000 0.541300 0.840829
vn 0.000000 0.408003 -0.912980
vn -0.972338 -0.233544 -0.004037
vn -0.000000 -0.028341 0.999598
vn 0.987594 0.004450 -0.156965
vn 0.000000 0.164886 -0.986313
vn 0.000000 0.999598 0.028340
vn -0.733344 0.019268 -0.679585
vn -0.073211 -0.028264 0.996916
vn -0.071251 -0.257270 0.963709
vn -0.438257 -0.267841 0.858017
vn -0.907764 -0.011888 0.419313
vn 0.050633 -0.998316 -0.028303
vn 0.906789 0.421415 0.011948
vn 0.003514 -0.134135 -0.990957
vn 0.058594 -0.028292 0.997881
vn 0.739502 -0.672825 -0.021042
vn -0.853730 0.520438 0.017025
vn 0.000000 -0.005696 -0.999984
vn -0.000000 -0.035645 0.999365
vn 0.000000 -0.254124 0.967172
vn 0.972422 -0.233134 -0.006610
vn 0.000000 -1.000000 0.000000
vn 0.000000 -0.015634 0.999878
vn -0.000000 -0.015385 0.999882
vn -0.000000 -0.101017 0.994885
vn 0.000000 -0.258715 -0.965954
vn 0.000000 0.115268 -0.993334
vn 0.000000 0.000000 -1.000000
vn 0.000000 -0.104622 0.994512
vn 0.000000 -0.262613 -0.964901
vn 0.000000 0.119368 -0.992850
vn -0.000000 0.000000 1.000000
vn 0.000000 1.000000 0.000000
vn 0.117188 -0.981451 -0.151723
vn -0.285378 0.483961 -0.827249
vn 0.978970 -0.190618 0.072678
vn -0.999161 -0.006264 0.040464
vn -0.153577 -0.911591 0.381335
vn -0.173498 0.957928 -0.228633
vn -0.984615 -0.028589 -0.172385
vn 0.919334 -0.165647 0.356912
vn -0.058744 -0.973886 0.219308
vn 0.106727 0.942196 -0.317610
vn -0.883765 -0.051427 -0.465097
vn 0.997534 -0.048813 0.050433
vn -0.424306 0.223212 0.877577
vn 0.058742 0.973886 -0.219308
vn -0.909548 -0.038326 -0.413827
vn 0.909547 0.038327 0.413830
vn -0.291089 -0.072646 -0.953934
vn 0.253111 0.377727 0.890650
vn 0.904940 0.302610 -0.299183
vn -0.911086 0.325252 0.253245
vn 0.128005 -0.991105 0.036417
vn 0.291089 0.072646 0.953934
vn 0.947722 0.114353 -0.297902
vn -0.915502 -0.268291 0.299792
vn -0.348708 -0.914774 -0.203940
vn -0.000000 0.976039 0.217596
vn 1.000000 0.000000 0.000001
vn -0.000000 -0.217597 0.976039
vn 0.000000 0.217597 -0.976039
vn 0.000000 -0.998824 0.048492
vn 0.000000 -0.741742 -0.670685
vn 0.348706 -0.914775 -0.203939
vn 0.000000 0.541303 0.840827
vn -0.971410 -0.237409 0.000000
vn 0.348251 -0.936559 -0.039736
vn 0.000000 -0.028340 0.999598
vn 0.009907 -0.126023 -0.991978
vn -0.000000 -0.204729 0.978819
vn 0.300263 -0.117263 0.946621
vn 0.088431 0.737885 -0.669108
vn -0.992653 -0.065973 0.101428
vn 0.903040 -0.153535 -0.401180
vn -0.280780 -0.183132 -0.942139
vn -0.179424 0.018887 0.983591
vn 0.935608 -0.336937 0.105406
vn -0.770350 0.620869 -0.145197
vn 0.970822 -0.239802 0.000000
vn 0.000001 -0.005696 -0.999984
vn 0.116386 -0.981639 -0.151127
vn -0.310067 0.529400 -0.789680
vn 0.953326 0.061592 -0.295594
vn -0.948139 -0.111163 0.297785
vn -0.139126 -0.913121 0.383215
vn 0.058704 0.973904 -0.219238
vn -0.979599 0.013942 -0.200479
vn 0.968128 -0.001998 0.250449
vn -0.058741 -0.973886 0.219308
vn 0.106491 0.942280 -0.317440
vn -0.883762 -0.051428 -0.465102
vn 0.997534 -0.048812 0.050433
vn 0.058742 0.973886 -0.219309
vn -0.909547 -0.038327 -0.413830
vn 0.909548 0.038327 0.413829
vn 0.229190 0.410088 0.882780
vn 0.904939 0.302613 -0.299183
vn 0.128008 -0.991104 0.036413
vn 0.291088 0.072646 0.953934
vn 0.947722 0.114354 -0.297902
vn -0.915502 -0.268290 0.299793
s off
f 3/1/1 4/2/1 12/3/1
f 5/4/2 8/5/2 6/6/2
f 1/7/3 5/8/3 2/9/3
f 2/10/4 6/11/4 7/12/4
f 3/13/5 7/14/5 4/15/5
f 5/16/6 1/17/6 8/18/6
f 11/19/7 12/20/7 15/21/7
f 2/22/8 3/1/8 10/23/8
f 4/2/9 1/24/9 12/3/9
f 1/24/10 2/22/10 9/25/10
f 16/26/11 20/27/11 26/28/11
f 10/29/12 11/30/12 14/31/12
f 12/32/13 9/33/13 16/26/13
f 9/34/3 10/35/3 14/36/3
f 27/37/14 28/38/14 44/39/14
f 14/31/15 15/40/15 18/41/15
f 16/26/11 13/42/11 20/27/11
f 17/43/11 13/42/11 23/44/11
f 23/44/16 21/45/16 29/46/16
f 14/31/15 18/41/15 22/47/15
f 28/48/17 20/27/17 40/49/17
f 13/50/18 14/51/18 21/52/18
f 26/28/19 28/48/19 36/53/19
f 19/54/20 15/40/20 27/55/20
f 19/54/21 27/55/21 39/56/21
f 15/57/18 16/58/18 26/59/18
f 35/60/22 33/61/22 91/62/22
f 22/47/23 24/63/23 30/64/23
f 24/65/24 23/66/24 31/67/24
f 21/68/25 22/69/25 29/70/25
f 34/71/26 36/53/26 92/72/26
f 27/55/27 25/73/27 35/60/27
f 28/74/28 27/75/28 35/76/28
f 25/77/29 26/78/29 34/79/29
f 43/80/7 44/39/7 52/81/7
f 44/82/30 40/49/30 52/83/30
f 39/56/31 43/84/31 47/85/31
f 24/63/32 18/41/32 38/86/32
f 17/43/17 23/44/17 37/87/17
f 23/88/33 24/89/33 41/90/33
f 18/41/32 19/54/32 38/86/32
f 20/27/17 17/43/17 40/49/17
f 45/91/34 46/92/34 48/93/34
f 50/94/35 46/95/35 68/96/35
f 47/85/36 51/97/36 53/98/36
f 42/99/31 38/86/31 50/94/31
f 37/87/30 41/100/30 45/101/30
f 41/90/3 42/102/3 49/103/3
f 38/86/31 39/56/31 46/95/31
f 40/49/30 37/87/30 48/104/30
f 53/98/37 55/105/37 57/106/37
f 52/83/38 48/104/38 56/107/38
f 51/108/7 52/81/7 55/109/7
f 48/110/3 47/111/3 53/112/3
f 76/113/3 72/114/3 84/115/3
f 56/107/39 54/116/39 60/117/39
f 55/109/7 56/118/7 60/119/7
f 54/120/3 53/112/3 58/121/3
f 62/122/34 61/123/34 64/124/34
f 60/117/40 58/125/40 64/126/40
f 59/127/7 60/119/7 63/128/7
f 58/121/3 57/129/3 62/130/3
f 68/96/41 66/131/41 72/132/41
f 45/101/42 49/133/42 65/134/42
f 49/103/3 50/135/3 68/136/3
f 46/137/7 45/138/7 66/139/7
f 70/140/7 74/141/7 81/142/7
f 65/134/43 67/143/43 69/144/43
f 67/145/3 68/136/3 71/146/3
f 66/139/7 65/147/7 69/148/7
f 74/149/34 73/150/34 76/151/34
f 69/144/40 71/152/40 73/153/40
f 71/146/3 72/114/3 75/154/3
f 70/140/7 69/148/7 74/141/7
f 77/155/44 78/156/44 79/157/44
f 82/158/44 81/159/44 84/160/44
f 74/149/34 76/151/34 83/161/34
f 72/162/45 70/163/45 82/164/45
f 59/127/7 63/128/7 78/165/7
f 61/166/3 57/129/3 79/167/3
f 63/168/34 61/123/34 80/169/34
f 57/170/45 59/171/45 77/172/45
f 87/173/46 85/174/46 93/175/46
f 90/176/47 92/72/47 102/177/47
f 36/178/48 35/179/48 92/180/48
f 33/181/49 34/79/49 90/182/49
f 31/183/50 29/46/50 85/174/50
f 30/64/51 32/184/51 86/185/51
f 32/186/52 31/67/52 88/187/52
f 29/70/53 30/188/53 86/189/53
f 95/190/54 93/175/54 97/191/54
f 86/185/55 88/192/55 94/193/55
f 88/187/56 87/194/56 95/195/56
f 85/196/57 86/189/57 93/197/57
f 97/198/58 98/199/58 99/200/58
f 94/193/59 96/201/59 98/202/59
f 96/203/60 95/195/60 100/204/60
f 93/197/61 94/205/61 98/206/61
f 102/177/62 104/207/62 108/208/62
f 91/62/63 89/209/63 101/210/63
f 92/180/64 91/211/64 104/212/64
f 89/213/65 90/182/65 102/214/65
f 105/215/66 106/216/66 107/217/66
f 103/218/67 101/210/67 107/219/67
f 104/212/68 103/220/68 107/221/68
f 101/222/69 102/214/69 105/223/69
f 11/224/70 3/1/70 12/3/70
f 8/5/71 7/225/71 6/6/71
f 5/8/72 6/226/72 2/9/72
f 3/227/73 2/10/73 7/12/73
f 7/14/5 8/228/5 4/15/5
f 1/17/74 4/229/74 8/18/74
f 12/20/7 16/230/7 15/21/7
f 3/1/75 11/224/75 10/23/75
f 1/24/76 9/25/76 12/3/76
f 2/22/77 10/23/77 9/25/77
f 20/27/11 28/48/11 26/28/11
f 11/30/78 15/40/78 14/31/78
f 9/33/13 13/42/13 16/26/13
f 13/231/3 9/34/3 14/36/3
f 43/80/79 27/37/79 44/39/79
f 15/40/15 19/54/15 18/41/15
f 13/42/11 17/43/11 20/27/11
f 13/42/11 21/45/11 23/44/11
f 31/183/80 23/44/80 29/46/80
f 18/41/81 24/63/81 22/47/81
f 44/82/17 28/48/17 40/49/17
f 14/51/18 22/232/18 21/52/18
f 34/71/82 26/28/82 36/53/82
f 15/40/20 25/73/20 27/55/20
f 27/55/83 43/84/83 39/56/83
f 25/233/18 15/57/18 26/59/18
f 33/61/84 89/209/84 91/62/84
f 24/63/85 32/184/85 30/64/85
f 32/186/86 24/65/86 31/67/86
f 22/69/87 30/188/87 29/70/87
f 90/176/88 34/71/88 92/72/88
f 25/73/89 33/61/89 35/60/89
f 36/234/90 28/74/90 35/76/90
f 33/181/91 25/77/91 34/79/91
f 51/108/7 43/80/7 52/81/7
f 40/49/30 48/104/30 52/83/30
f 43/84/31 51/97/31 47/85/31
f 42/99/32 24/63/32 38/86/32
f 23/44/17 41/100/17 37/87/17
f 24/89/92 42/102/92 41/90/92
f 19/54/32 39/56/32 38/86/32
f 17/43/17 37/87/17 40/49/17
f 46/92/34 47/235/34 48/93/34
f 46/95/35 66/131/35 68/96/35
f 51/97/36 55/105/36 53/98/36
f 38/86/31 46/95/31 50/94/31
f 41/100/30 49/133/30 45/101/30
f 42/102/3 50/135/3 49/103/3
f 39/56/31 47/85/31 46/95/31
f 37/87/93 45/101/93 48/104/93
f 55/105/37 59/236/37 57/106/37
f 48/104/38 54/116/38 56/107/38
f 52/81/7 56/118/7 55/109/7
f 54/120/3 48/110/3 53/112/3
f 72/114/3 82/237/3 84/115/3
f 54/116/39 58/125/39 60/117/39
f 59/127/7 55/109/7 60/119/7
f 53/112/3 57/129/3 58/121/3
f 61/123/34 63/168/34 64/124/34
f 58/125/40 62/238/40 64/126/40
f 60/119/7 64/239/7 63/128/7
f 57/129/3 61/166/3 62/130/3
f 66/131/41 70/240/41 72/132/41
f 49/133/42 67/143/42 65/134/42
f 67/145/3 49/103/3 68/136/3
f 45/138/7 65/147/7 66/139/7
f 74/141/7 83/241/7 81/142/7
f 67/143/43 71/152/43 69/144/43
f 68/136/3 72/114/3 71/146/3
f 70/140/7 66/139/7 69/148/7
f 73/150/34 75/242/34 76/151/34
f 71/152/40 75/243/40 73/153/40
f 72/114/3 76/113/3 75/154/3
f 69/148/7 73/244/7 74/141/7
f 78/156/44 80/245/44 79/157/44
f 81/159/44 83/246/44 84/160/44
f 76/151/34 84/247/34 83/161/34
f 70/163/45 81/248/45 82/164/45
f 63/128/7 80/249/7 78/165/7
f 57/129/3 77/250/3 79/167/3
f 61/123/34 79/251/34 80/169/34
f 59/171/45 78/252/45 77/172/45
f 95/190/94 87/173/94 93/175/94
f 92/72/95 104/207/95 102/177/95
f 35/179/96 91/211/96 92/180/96
f 89/213/97 33/181/97 90/182/97
f 87/173/98 31/183/98 85/174/98
f 32/184/99 88/192/99 86/185/99
f 31/67/100 87/194/100 88/187/100
f 85/196/101 29/70/101 86/189/101
f 99/253/102 95/190/102 97/191/102
f 88/192/103 96/201/103 94/193/103
f 96/203/104 88/187/104 95/195/104
f 86/189/105 94/205/105 93/197/105
f 98/199/58 100/254/58 99/200/58
f 96/201/106 100/255/106 98/202/106
f 95/195/107 99/256/107 100/204/107
f 97/257/108 93/197/108 98/206/108
f 106/258/62 102/177/62 108/208/62
f 103/218/109 91/62/109 101/210/109
f 91/211/110 103/220/110 104/212/110
f 101/222/65 89/213/65 102/214/65
f 106/216/111 108/259/111 107/217/111
f 101/210/112 105/260/112 107/219/112
f 108/261/113 104/212/113 107/221/113
f 102/214/114 106/262/114 105/223/114
